<?xml version="1.0" encoding="utf-8"?>
<!-- Generator: Adobe Illustrator 16.0.0, SVG Export Plug-In . SVG Version: 6.00 Build 0)  -->
<!DOCTYPE svg PUBLIC "-//W3C//DTD SVG 1.1//EN" "http://www.w3.org/Graphics/SVG/1.1/DTD/svg11.dtd">
<svg version="1.1" id="Layer_1" xmlns="http://www.w3.org/2000/svg" xmlns:xlink="http://www.w3.org/1999/xlink" x="0px" y="0px"
	 width="215.099px" height="151.319px" viewBox="0 0 215.099 151.319" enable-background="new 0 0 215.099 151.319"
	 xml:space="preserve">
<g>
	<linearGradient id="SVGID_1_" gradientUnits="userSpaceOnUse" x1="156.9053" y1="0" x2="156.9053" y2="150.8198">
		<stop  offset="0" style="stop-color:#5B9FD3"/>
		<stop  offset="1" style="stop-color:#306A99"/>
	</linearGradient>
	<path fill="url(#SVGID_1_)" d="M114.386,150.819c-15,0-15.173-15.021-15.173-15.173l0-85.04c0-0.265,0.105-0.52,0.293-0.707
		s0.442-0.293,0.707-0.293h27.412c0.333-3.382,2.395-14.173,15.108-14.173c0,0,35.434,0,35.435,0c1.948,0,3.469-0.618,4.066-1.653
		c0.332-0.574,0.332-1.207,0-1.781c-0.598-1.035-2.118-1.653-4.067-1.653h-35.433c-0.44,0-0.829-0.289-0.957-0.71
		c-0.128-0.421,0.036-0.877,0.402-1.122l12.499-8.333c-6.8-2.438-27.117-10.454-27.117-19.182c0-0.552,0.447-1,1-1l56.691,0
		c0.294,0,29.347,0.336,29.347,29.347v7.086c0,0.293-0.336,29.347-29.347,29.347l-21.26,0c-5.88,0-6.082,5.466-6.086,6.089v63.777
		c0,14.999-15.022,15.173-15.174,15.173H114.386z"/>
	<path d="M185.252,1c0,0,28.347,0,28.347,28.347c0,7.086,0,7.086,0,7.086s0,28.347-28.347,28.347l-21.26,0
		c-7.087,0-7.086,7.086-7.086,7.086s0,49.606,0,63.78s-14.174,14.173-14.174,14.173s-14.173,0-28.346,0
		s-14.173-14.173-14.173-14.173l0-85.04h28.347c0,0,0-14.173,14.173-14.173h35.434c7.087,0,7.087-7.087,0-7.087h-35.433
		l14.174-9.449c0,0-28.347-9.449-28.347-18.897L185.252,1 M185.252-1L185.252-1l-56.691,0c-1.104,0-2,0.896-2,2
		c0,4.806,4.998,9.64,15.279,14.781c3.973,1.986,7.907,3.596,10.664,4.648l-10.88,7.253c-0.733,0.489-1.061,1.4-0.805,2.244
		c0.255,0.843,1.033,1.42,1.914,1.42h35.433c1.869,0,2.88,0.596,3.201,1.153c0.152,0.263,0.152,0.518,0,0.78
		c-0.321,0.558-1.332,1.153-3.201,1.153h-35.434c-11.39,0-15.318,8.386-16.043,14.173h-26.477c-0.53,0-1.039,0.211-1.414,0.586
		s-0.586,0.884-0.586,1.414l0,85.04c0,5.594,3.38,16.173,16.173,16.173h28.346c0.164,0,4.061-0.022,7.981-1.982
		c3.737-1.868,8.192-5.847,8.192-14.19v-63.78c0.011-0.839,0.308-5.086,5.086-5.086l21.26,0c15.665,0,23.107-8.309,26.592-15.279
		c3.712-7.424,3.755-14.759,3.755-15.068v-7.086c0-15.665-8.309-23.107-15.279-26.592C192.896-0.957,185.561-1,185.252-1L185.252-1z
		"/>
</g>
<linearGradient id="SVGID_2_" gradientUnits="userSpaceOnUse" x1="100.2124" y1="75.4097" x2="213.5986" y2="75.4097">
	<stop  offset="0" style="stop-color:#FFD43C"/>
	<stop  offset="1" style="stop-color:#FEE774"/>
</linearGradient>
<path fill="url(#SVGID_2_)" stroke="#000000" stroke-linecap="round" stroke-linejoin="round" stroke-miterlimit="10" d="
	M128.559,50.607h-28.346l0,85.04c0,14.174,14.173,14.173,14.173,14.173s14.172,0,28.346,0s14.174-14.173,14.174-14.173
	s-0.001-56.693,0-63.78s7.086-7.086,7.086-7.086l21.26,0c28.347,0,28.347-28.347,28.347-28.347s0,0,0-7.086
	C213.599,1,185.252,1,185.252,1l-7.087,0c0,0,0,7.086,7.087,7.086c21.26,0,21.26,21.26,21.26,21.26v7.087
	c0,21.26-21.26,21.26-21.26,21.26s-14.174,0-21.261,0c-14.173,0-14.173,14.173-14.173,14.173s0,56.693,0,63.78
	s-7.086,7.086-7.086,7.086s-21.26,0-28.347,0s-7.087-7.086-7.087-7.086s0,0,0-7.087V50.607"/>
<line fill="#27AAE1" stroke="#000000" stroke-width="2" stroke-linecap="round" stroke-linejoin="round" stroke-miterlimit="10" x1="128.559" y1="128.56" x2="128.559" y2="78.955"/>
<line fill="none" stroke="#000000" stroke-linecap="round" stroke-linejoin="round" stroke-miterlimit="10" x1="155.707" y1="19.898" x2="141.377" y2="19.898"/>
<line fill="none" stroke="#000000" stroke-linecap="round" stroke-linejoin="round" stroke-miterlimit="10" x1="141.377" y1="19.898" x2="135.646" y2="23.62"/>
<line fill="none" stroke="#000000" stroke-linecap="round" stroke-linejoin="round" stroke-miterlimit="10" x1="141.377" y1="19.898" x2="135.646" y2="16.178"/>
<g>
	
		<line fill="none" stroke="#000000" stroke-width="2" stroke-linecap="round" stroke-linejoin="round" stroke-miterlimit="10" x1="128.56" y1="128.56" x2="126.335" y2="130.784"/>
	
		<line fill="none" stroke="#000000" stroke-width="2" stroke-linecap="round" stroke-linejoin="round" stroke-miterlimit="10" x1="130.785" y1="130.785" x2="128.56" y2="128.56"/>
</g>
<line fill="none" stroke="#000000" stroke-linecap="round" stroke-linejoin="round" stroke-miterlimit="10" x1="149.819" y1="8.087" x2="156.906" y2="8.087"/>
<g>
	<g id="G">
		<g>
			<path fill="#FFFFFF" d="M163.992,150.819c-6.396,0-8.087-5.29-8.087-8.087l0.001-70.866c0-0.082,0.011-2.03,0.991-3.991
				c0.934-1.868,2.923-4.096,7.094-4.096c0.001,0,42.52,0,42.52,0c0.082,0,2.03,0.011,3.99,0.991
				c1.869,0.934,4.097,2.923,4.097,7.095l0.001,70.866c0,6.396-5.29,8.087-8.087,8.087H163.992z"/>
			<path d="M206.511,64.78c0.003,0,7.087,0.001,7.087,7.086l0.001,35.434v35.432c0,7.086-7.087,7.087-7.087,7.087s-35.434,0-42.52,0
				s-7.087-7.087-7.087-7.087l0.001-70.866c0,0-0.001-7.087,7.086-7.086H206.511L206.511,64.78 M206.511,62.78h-42.519
				c-3.653,0-6.491,1.651-7.989,4.649c-1.066,2.132-1.097,4.208-1.097,4.438l-0.001,70.865c0,3.653,2.421,9.087,9.087,9.087h42.52
				c3.653-0.001,9.087-2.421,9.087-9.087V107.3l-0.001-35.434C215.598,65.2,210.163,62.78,206.511,62.78L206.511,62.78z"/>
		</g>
	</g>
	
		<path fill="#FFFFFF" stroke="#000000" stroke-width="2" stroke-linecap="round" stroke-linejoin="round" stroke-miterlimit="10" d="
		M213.598,93.126h-28.347c-7.086,0-7.085,7.087-7.085,7.087l-0.001,14.173c0,7.087,7.086,7.088,7.086,7.088h7.088"/>
</g>
<g>
	<g>
		<linearGradient id="SVGID_3_" gradientUnits="userSpaceOnUse" x1="36.4331" y1="35.4326" x2="36.4331" y2="122.4722">
			<stop  offset="0" style="stop-color:#5B9FD3"/>
			<stop  offset="1" style="stop-color:#306A99"/>
		</linearGradient>
		<path fill="url(#SVGID_3_)" d="M1,122.472c-0.552,0-1-0.447-1-1s0.448-1,1-1c19.939,0,20.255-12.64,20.259-13.178V57.692
			c0-0.223,0.254-22.26,22.261-22.26l28.346,0c0.552,0,1,0.448,1,1V64.78c0,0.552-0.448,1-1,1h-21.26
			c-0.62,0.004-6.086,0.208-6.086,6.087v35.432c0,15-15.021,15.173-15.173,15.173H1z"/>
		<path d="M43.52,36.433c14.173,0,28.346,0,28.346,0V64.78h-21.26c0,0-7.086,0-7.086,7.087v35.432
			c0,14.173-14.173,14.173-14.173,14.173H1c21.259,0,21.259-14.174,21.259-14.174V57.692C22.259,57.692,22.259,36.433,43.52,36.433
			 M43.52,34.433c-22.995,0-23.261,23.027-23.261,23.26v49.605c-0.007,0.484-0.391,12.174-19.259,12.174c-1.104,0-2,0.896-2,2
			s0.896,2,2,2h28.346c5.594,0,16.173-3.38,16.173-16.173V71.867c0-4.944,4.566-5.087,5.086-5.087h21.26c1.104,0,2-0.896,2-2V36.433
			c0-1.104-0.896-2-2-2L43.52,34.433L43.52,34.433z"/>
	</g>
	<linearGradient id="SVGID_4_" gradientUnits="userSpaceOnUse" x1="22.2593" y1="89.8169" x2="71.8657" y2="89.8169">
		<stop  offset="0" style="stop-color:#FFD43C"/>
		<stop  offset="1" style="stop-color:#FEE774"/>
	</linearGradient>
	<path fill="url(#SVGID_4_)" stroke="#000000" stroke-linecap="round" stroke-linejoin="round" stroke-miterlimit="10" d="
		M36.432,107.663l0-35.692c0-14.277,14.173-14.277,14.173-14.277h21.26v7.138h-21.26c-7.086,0-7.086,7.139-7.086,7.139l0,35.692
		c0,14.278-14.173,14.278-14.173,14.278h-7.086C22.259,121.94,36.432,121.939,36.432,107.663z"/>
</g>
<g id="L">
	<path fill="#FFFFFF" d="M57.692,150.818c-15,0-15.173-15.022-15.173-15.174V71.866c0-2.797,1.69-8.086,8.086-8.086h21.26
		c0.552,0,1,0.448,1,1v49.605c0,5.88,5.466,6.082,6.089,6.086h21.258c0.552,0,1,0.447,1,1v28.348c0,0.553-0.448,1-1,1H57.692z"/>
	<path d="M71.866,64.78v49.605c0,7.085,7.083,7.086,7.086,7.086l0,0h21.261v28.348H57.692c-14.173,0-14.173-14.174-14.173-14.174
		V71.866c0,0,0-7.086,7.086-7.086H71.866 M71.866,62.78h-21.26c-6.667,0-9.086,5.434-9.086,9.086v63.778
		c0,5.594,3.38,16.174,16.173,16.174h42.521c1.104,0,2-0.896,2-2v-28.348c0-1.104-0.896-2-2-2H78.952
		c-0.839-0.011-5.086-0.308-5.086-5.086V64.78C73.866,63.675,72.97,62.78,71.866,62.78L71.866,62.78z"/>
</g>
<g id="P">
	<g>
		<path fill="#FFFFFF" d="M71.865,122.473c-0.552,0-1-0.447-1-1V36.435c0-0.552,0.448-1,1-1h42.519
			c0.152,0,15.173,0.173,15.175,15.172v28.348c-0.002,14.999-15.022,15.172-15.174,15.172l-13.173,0v27.346c0,0.553-0.448,1-1,1
			H71.865z"/>
		<path d="M114.383,36.435c0,0,14.173,0,14.175,14.172c0,0.001,0,28.348,0,28.348c-0.002,14.172-14.174,14.172-14.174,14.172
			l-14.173,0v28.346H71.865V36.435H114.383 M114.383,34.435H71.865c-1.104,0-2,0.896-2,2v85.038c0,1.104,0.896,2,2,2h28.347
			c1.104,0,2-0.896,2-2V95.126l12.173,0c5.593,0,16.172-3.38,16.174-16.172V50.607C130.557,37.814,119.978,34.435,114.383,34.435
			L114.383,34.435z"/>
	</g>
	<g>
		
			<line fill="#FFFFFF" stroke="#000000" stroke-width="2" stroke-linecap="round" stroke-linejoin="round" stroke-miterlimit="10" x1="94.544" y1="64.78" x2="105.882" y2="64.78"/>
		
			<line fill="#FFFFFF" stroke="#000000" stroke-width="2" stroke-linecap="round" stroke-linejoin="round" stroke-miterlimit="10" x1="100.213" y1="59.11" x2="100.213" y2="70.449"/>
	</g>
</g>
</svg>
